<svg width="324" height="329" viewBox="0 0 324 329" fill="none"
    xmlns="http://www.w3.org/2000/svg">
    <rect x="6" y="8" width="315" height="320" rx="157.5" fill="white"/>
    <path d="M156.872 42.6469C156.456 44.4296 156.684 45.6096 156.662 44.9614C156.646 44.4296 157.163 43.2042 157.48 42.5066C157.276 42.5507 157.074 42.5975 156.872 42.6469Z" fill="#3251A4"/>
    <path d="M156.872 42.6469C156.456 44.4296 156.684 45.6096 156.662 44.9614C156.646 44.4296 157.163 43.2042 157.48 42.5066C157.276 42.5507 157.074 42.5975 156.872 42.6469Z" fill="#3251A4"/>
    <path d="M156.872 42.6469C156.456 44.4296 156.684 45.6096 156.662 44.9614C156.646 44.4296 157.163 43.2042 157.48 42.5066C157.276 42.5507 157.074 42.5975 156.872 42.6469Z" fill="#3251A4"/>
    <path d="M156.872 42.6469C156.456 44.4296 156.684 45.6096 156.662 44.9614C156.646 44.4296 157.163 43.2042 157.48 42.5066C157.276 42.5507 157.074 42.5975 156.872 42.6469Z" fill="#3251A4"/>
    <path d="M156.872 42.6469C156.456 44.4296 156.684 45.6096 156.662 44.9614C156.646 44.4296 157.163 43.2042 157.48 42.5066C157.276 42.5507 157.074 42.5975 156.872 42.6469Z" fill="#3251A4"/>
    <path d="M193.68 18.6816C193.086 20.3921 192.746 22.2228 192.746 24.1364C192.746 25.7373 192.985 27.2821 193.408 28.748L211.333 18.6816H193.68Z" fill="#F25C20"/>
    <path d="M211.332 18.6816L193.406 28.748C195.316 35.3695 201.224 40.2791 208.352 40.712L219.209 26.5725L211.332 18.6816Z" fill="#F68D15"/>
    <path d="M212.675 7.84013C211.608 7.62499 210.504 7.51007 209.372 7.51007C202.101 7.51007 195.939 12.1818 193.68 18.6816H211.332L212.675 7.84013Z" fill="#F25B1F"/>
    <path d="M208.352 40.712C208.691 40.7321 209.026 40.7628 209.371 40.7628C215.874 40.7628 221.489 37.0225 224.222 31.585L219.209 26.5725L208.352 40.712Z" fill="#F7AB0C"/>
    <path d="M212.675 7.84008L211.332 18.6816L219.21 26.5725L225.131 18.862C223.264 13.2842 218.533 9.02004 212.675 7.84008Z" fill="#F79713"/>
    <path d="M224.221 31.5851C225.349 29.3414 225.999 26.8171 225.999 24.1364C225.999 22.2897 225.686 20.5204 225.13 18.862L219.209 26.5726L224.221 31.5851Z" fill="#F79014"/>
    <path d="M114.617 40.7628C123.8 40.7628 131.243 33.3182 131.243 24.1364C131.243 23.9346 131.22 23.7395 131.212 23.5417L98.5195 28.2429C100.352 35.4349 106.853 40.7628 114.617 40.7628Z" fill="#F25C20"/>
    <path d="M114.617 7.51004C105.433 7.51004 97.9883 14.9533 97.9883 24.1364C97.9883 25.5556 98.1861 26.9267 98.5201 28.2429L131.213 23.5418C130.898 14.6352 123.6 7.51004 114.617 7.51004Z" fill="#F58615"/>
    <path d="M141.695 22.033C142.539 32.5151 151.295 40.7628 161.994 40.7628C164.255 40.7628 166.422 40.3806 168.455 39.7004L165.006 18.6816L141.695 22.033Z" fill="#F25C20"/>
    <path d="M168.455 39.7004C176.541 36.9957 182.375 29.376 182.375 20.3813C182.375 19.808 182.336 19.2428 182.29 18.6815H165.006L168.455 39.7004Z" fill="#F25C20"/>
    <path d="M143.067 12.8513C142.138 15.1831 141.613 17.7194 141.613 20.3814C141.613 20.9386 141.652 21.4865 141.696 22.0331L165.007 18.6816L143.067 12.8513Z" fill="#F58615"/>
    <path d="M182.29 18.6816C181.973 14.8598 180.601 11.3466 178.468 8.4161C170.304 14.63 165.006 18.6816 165.006 18.6816H182.29Z" fill="#F25B1F"/>
    <path d="M178.469 8.4161C174.894 3.50382 169.19 0.259234 162.703 0.0360699L165.007 18.6816C165.007 18.6816 170.305 14.63 178.469 8.4161Z" fill="#F37216"/>
    <path d="M143.066 12.8513L165.006 18.6816L162.702 0.0360699C162.466 0.0280521 162.233 -3.72529e-08 161.994 -3.72529e-08C153.4 -3.72529e-08 146.064 5.32653 143.066 12.8513Z" fill="#F79713"/>
    <path d="M126.725 85.2834L178.779 101.618L196.922 90.2064V80.1239L126.725 84.65V85.2834Z" fill="#F3621E"/>
    <path d="M148.214 46.4916C136.347 46.4916 126.725 56.113 126.725 67.9795V83.8174L187.07 49.9326C183.714 47.7638 179.725 46.4916 175.433 46.4916H148.214Z" fill="#F25C20"/>
    <path d="M126.725 84.65L196.922 80.1239V67.9795C196.922 60.4053 192.992 53.7598 187.07 49.9326L126.725 83.8175V84.65Z" fill="#F58615"/>
    <path d="M196.922 107.307V90.2064L178.779 101.618L196.922 107.307Z" fill="#DB2C23"/>
    <path d="M178.779 101.618L126.725 85.2834V90.2932L137.926 127.308L178.779 101.618Z" fill="#F68D15"/>
    <path d="M126.725 134.351V145.021C126.725 145.216 126.725 145.411 126.746 145.606H143.466L137.926 127.308L126.725 134.351Z" fill="#42AACE"/>
    <path d="M188.116 145.606L196.921 122.77V116.439L176.139 145.606H188.116Z" fill="#3A9DB3"/>
    <path d="M126.725 90.2932V125.397L137.926 127.308L126.725 90.2932Z" fill="#358EA6"/>
    <path d="M126.725 125.397V134.351L137.926 127.308L126.725 125.397Z" fill="#47BAD4"/>
    <path d="M188.117 145.606H196.902C196.922 145.411 196.922 145.216 196.922 145.021V122.77L188.117 145.606Z" fill="#41AFB6"/>
    <path d="M143.464 145.606H176.138L196.921 116.439V110.492L137.924 127.308L143.464 145.606Z" fill="#47BAD4"/>
    <path d="M137.924 127.308L196.921 110.492V107.307L178.778 101.618L137.924 127.308Z" fill="#3FADB4"/>
    <path d="M85.416 88.7845V89.4473L85.8877 89.1239L85.416 88.7845Z" fill="#3FADB4"/>
    <path d="M122.421 100.589V86.768L85.8867 89.1239L122.421 100.589Z" fill="#F3621E"/>
    <path d="M85.8877 89.124L122.422 68.6089V67.9795C122.422 59.0155 127.023 51.1126 133.99 46.4916H106.904C95.0375 46.4916 85.416 56.113 85.416 67.9795V88.7845L85.8877 89.124Z" fill="#F25C20"/>
    <path d="M122.421 86.768V68.6089L85.8867 89.124L122.421 86.768Z" fill="#F58615"/>
    <path d="M98.7608 131.673L122.421 116.796V100.59L85.8867 89.124L98.7608 131.673Z" fill="#F68D15"/>
    <path d="M85.416 140.068V144.988C85.5283 145.205 85.6419 145.411 85.7554 145.606H102.982L98.7618 131.673L85.416 140.068Z" fill="#42AACE"/>
    <path d="M85.8877 89.124L85.416 89.4473V129.396L98.7618 131.673L85.8877 89.124Z" fill="#358EA6"/>
    <path d="M85.416 129.396V140.068L98.7618 131.673L85.416 129.396Z" fill="#47BAD4"/>
    <path d="M102.982 145.606H122.433C122.422 145.411 122.422 145.216 122.422 145.021V124.929L98.7617 131.673L102.982 145.606Z" fill="#47BAD4"/>
    <path d="M122.422 124.929V116.796L98.7617 131.673L122.422 124.929Z" fill="#3FADB4"/>
    <path d="M189.656 46.4916C192.869 48.6257 195.548 51.4814 197.536 54.7968L203.915 46.4916H189.656Z" fill="#F68D15"/>
    <path d="M201.223 93.1449L238.23 107.319V80.1746L201.223 82.0441V93.1449Z" fill="#EF2F33"/>
    <path d="M216.743 46.4916H203.915L197.537 54.7968C199.856 58.6614 201.224 63.1554 201.224 67.9794V82.0441L238.232 80.1746V67.9794C238.232 56.113 228.609 46.4916 216.743 46.4916Z" fill="#F7AB0C"/>
    <path d="M235.379 145.606H238.232V137.493L237.184 136.587L235.379 145.606Z" fill="#EF2B50"/>
    <path d="M237.182 136.587L223.148 145.606H235.377L237.182 136.587Z" fill="#D71741"/>
    <path d="M237.184 136.587L238.231 135.857V134.798L237.184 136.587Z" fill="#D71741"/>
    <path d="M201.223 105.483L237.183 136.587L238.23 134.798V107.319L201.223 93.145V105.483Z" fill="#EC1A36"/>
    <path d="M238.231 137.493V136.916L237.184 136.587L238.231 137.493Z" fill="#EC1747"/>
    <path d="M237.183 136.587L201.223 105.483V125.307L237.183 136.587Z" fill="#ED4626"/>
    <path d="M237.184 136.587L238.231 136.916V135.857L237.184 136.587Z" fill="#E8183B"/>
    <path d="M237.184 136.587L201.224 125.307V134.163C201.224 135.356 201.132 140.862 200.977 145.606H223.15L237.184 136.587Z" fill="#EC1842"/>
    <path d="M238.23 161.257V150.751H228.642L213.311 161.257H238.23Z" fill="#3FADB4"/>
    <path d="M134.393 161.257H155.971L141.573 156.74L134.393 161.257Z" fill="#F3621E"/>
    <path d="M122.481 150.751H117.542L113.148 161.257H134.393L141.573 156.74L122.481 150.751Z" fill="#DB2C23"/>
    <path d="M151.099 150.751L141.572 156.74L155.971 161.257H191.572L188.393 150.751H151.099Z" fill="#F68D15"/>
    <path d="M85.4102 150.751V161.257H113.148L117.542 150.751H85.4102Z" fill="#ED4626"/>
    <path d="M191.572 161.257H213.309L228.641 150.751H188.393L191.572 161.257Z" fill="#358EA6"/>
    <path d="M151.099 150.751H122.48L141.572 156.74L151.099 150.751Z" fill="#3FADB4"/>
    <path d="M244.015 287.876C243.946 287.923 243.877 287.971 243.807 288.019L243.922 288.458L244.015 287.876Z" fill="#6FD0EB"/>
    <path d="M178.583 241.522C178.67 239.462 178.746 237.865 178.792 236.923L175.408 239.243L178.583 241.522Z" fill="#3FADB4"/>
    <path d="M243.807 288.019C243.723 288.077 243.639 288.136 243.555 288.193L243.922 288.458L243.807 288.019Z" fill="#3FADB4"/>
    <path d="M144.754 234.146C144.805 232.572 144.81 231.075 144.786 229.634L144.199 229.45C144.47 231.009 144.676 232.576 144.754 234.146Z" fill="#F3621E"/>
    <path d="M146.617 230.209C146.866 234.107 146.887 237.837 146.799 241.089L175.408 239.242L146.617 230.209Z" fill="#F3621E"/>
    <path d="M243.554 288.193C243.358 288.325 243.167 288.463 242.969 288.594L243.922 288.458L243.554 288.193Z" fill="#F25C20"/>
    <path d="M153.831 296.791C153.831 292.378 157.408 288.801 161.821 288.801C166.233 288.801 169.81 292.378 169.81 296.791C169.81 297.626 169.646 298.414 169.408 299.171L178.913 297.805C178.924 297.062 178.924 296.316 178.843 295.553L178.79 295.05C177.219 279.929 178.096 253.104 178.583 241.522L175.408 239.243L146.301 255.587C146.16 260.272 146.047 264.959 145.976 269.646C145.845 278.441 145.528 288.653 144.799 295.545L144.797 295.553C144.534 298.04 144.815 300.412 145.471 302.613L155.174 301.218C154.328 299.95 153.831 298.429 153.831 296.791Z" fill="#F25C20"/>
    <path d="M118.272 306.524C109.877 303.916 101.806 300.581 94.1328 296.58L96.2896 309.685L118.272 306.524Z" fill="#F25C20"/>
    <path d="M94.133 296.58C90.6171 294.746 87.1975 292.755 83.8554 290.652L68.9395 299.028C74.4932 302.93 80.2968 306.495 86.3342 309.685H96.2897L94.133 296.58Z" fill="#F25C20"/>
    <path d="M146.799 241.089C146.783 241.659 146.768 242.233 146.747 242.77C146.579 247.043 146.43 251.313 146.301 255.587L175.408 239.243L146.799 241.089Z" fill="#F58615"/>
    <path d="M62.9082 274.673L53.5781 286.825C58.4356 291.2 63.5764 295.261 68.9404 299.028L83.8563 290.652C76.3916 285.953 69.3853 280.601 62.9082 274.673Z" fill="#F68D15"/>
    <path d="M286.282 243.938C286.157 244.139 286.036 244.342 285.91 244.541L286.491 246.054L286.282 243.938Z" fill="#378CAD"/>
    <path d="M281.798 250.727C271.932 264.761 259.666 276.972 245.596 286.79L243.922 288.458L263.596 292.324C274.518 283.477 284.254 273.238 292.556 261.874L286.49 246.054L281.798 250.727Z" fill="#47BAD4"/>
    <path d="M285.909 244.541C284.588 246.639 283.222 248.702 281.799 250.727L286.491 246.054L285.909 244.541Z" fill="#3DAAAF"/>
    <path d="M245.596 286.79C245.072 287.156 244.545 287.517 244.015 287.876L243.922 288.458L245.596 286.79Z" fill="#3DAAAF"/>
    <path d="M26.2064 222.255L9.93551 216.021L8.53906 218.409C12.0776 228.875 16.6491 238.859 22.1481 248.241L39.5415 247.363C34.3272 239.49 29.8412 231.095 26.2064 222.255Z" fill="#EF2F33"/>
    <path d="M242.97 288.594C221.757 302.724 196.665 311.492 169.613 312.911C175.179 310.145 178.815 304.436 178.914 297.805L169.409 299.171C168.39 302.413 165.398 304.781 161.821 304.781C159.047 304.781 156.607 303.364 155.174 301.218L145.471 302.613C146.814 307.122 149.872 310.846 154.032 312.912C141.64 312.265 129.663 310.062 118.273 306.524L96.291 309.685L166.164 328.252C177.151 327.96 187.862 326.58 198.198 324.205L243.923 288.458L242.97 288.594Z" fill="#F58615"/>
    <path d="M86.3359 309.685C88.3123 310.729 90.3035 311.748 92.3266 312.713C94.8469 310.789 96.2915 309.685 96.2915 309.685H86.3359Z" fill="#F25B1F"/>
    <path d="M39.5419 247.363L22.1484 248.241C30.6086 262.677 41.2189 275.696 53.5785 286.825L62.9086 274.673C54.0542 266.57 46.1927 257.407 39.5419 247.363Z" fill="#F7AB0C"/>
    <path d="M219.02 193.455C221.538 191.988 223.913 190.273 226.091 188.3C226.219 188.183 226.346 188.055 226.474 187.936L215.197 178.871L219.02 193.455Z" fill="#42AACE"/>
    <path d="M144.199 229.45L144.785 229.634C144.644 220.724 143.19 214.358 141.511 209.913L137.207 212.619C140.7 217.605 143.148 223.43 144.199 229.45Z" fill="#F68D15"/>
    <path d="M162.534 196.693L142.211 209.472C144.956 215.571 146.165 223.141 146.617 230.209L175.408 239.242L162.534 196.693Z" fill="#F68D15"/>
    <path d="M198.197 324.205C218.591 319.519 237.506 310.996 254.147 299.413L243.922 288.458L198.197 324.205Z" fill="#FABB0D"/>
    <path d="M299.311 251.867C306.027 241.067 311.494 229.415 315.539 217.113L286.49 246.054L299.311 251.867Z" fill="#39778A"/>
    <path d="M286.281 243.938L286.491 246.054L315.54 217.113C316.636 213.779 317.666 210.414 318.548 206.989L305.489 195.692C301.978 213.096 295.364 229.365 286.281 243.938Z" fill="#42AACE"/>
    <path d="M254.147 299.413C257.384 297.16 260.539 294.801 263.596 292.324L243.922 288.458L254.147 299.413Z" fill="#F69411"/>
    <path d="M292.556 261.874C294.928 258.627 297.182 255.292 299.311 251.867L286.49 246.054L292.556 261.874Z" fill="#41AFB6"/>
    <path d="M92.3262 312.713C93.8415 313.435 95.3797 314.115 96.9204 314.79L96.291 309.685C96.291 309.685 94.8465 310.789 92.3262 312.713Z" fill="#F37216"/>
    <path d="M96.9204 314.79C116.789 323.497 138.724 328.361 161.808 328.361C163.27 328.361 164.712 328.29 166.164 328.252L96.291 309.685L96.9204 314.79Z" fill="#F79713"/>
    <path d="M7.40234 215.053C7.75647 216.182 8.16003 217.29 8.53821 218.409L9.93465 216.021L7.40234 215.053Z" fill="#EC1A38"/>
    <path d="M19.1652 200.238C18.8271 198.802 18.4944 197.361 18.1991 195.907L4.70898 205.326C5.51612 208.606 6.39941 211.855 7.40298 215.053L9.93529 216.021L19.1652 200.238Z" fill="#D71741"/>
    <path d="M26.2065 222.255C23.2973 215.18 20.9494 207.819 19.1655 200.238L9.93555 216.021L26.2065 222.255Z" fill="#EC1A36"/>
    <path d="M17.2525 190.652L1.41992 187.702C2.20166 193.685 3.29344 199.567 4.70859 205.326L18.1987 195.907C17.8459 194.169 17.5452 192.411 17.2525 190.652Z" fill="#E8183B"/>
    <path d="M198.795 173.89V172.599H200.847L204.521 170.289L201.517 167.873H161.82H153.807L162.534 196.693L198.795 173.89Z" fill="#42AACE"/>
    <path d="M114.049 182.153L110.078 184.263L106.201 194.318C107.857 195.195 109.567 195.966 111.323 196.633L131.226 168.701L114.049 182.153Z" fill="#3A9DB3"/>
    <path d="M175.409 239.242L178.793 236.923C178.825 236.279 178.844 235.931 178.844 235.931C178.844 222.779 186.088 209.381 196.792 202.535L162.535 196.693L175.409 239.242Z" fill="#358EA6"/>
    <path d="M200.848 172.599H207.396L204.521 170.289L200.848 172.599Z" fill="#47BAD4"/>
    <path d="M196.792 202.535C199.653 200.706 202.747 199.316 206.033 198.559C210.61 197.501 215 195.798 219.021 193.455L215.198 178.871L210.219 174.867H198.796V173.89L162.535 196.693L196.792 202.535Z" fill="#47BAD4"/>
    <path d="M99.4551 189.909C101.562 191.596 103.825 193.061 106.201 194.318L110.077 184.263L99.4551 189.909Z" fill="#41AFB6"/>
    <path d="M153.806 167.873H132.281L131.225 168.701L111.322 196.633C113.367 197.411 115.464 198.063 117.608 198.559C122.569 199.704 127.113 202.239 131.022 205.674L138.305 203.599C137.592 202.567 136.981 201.873 136.584 201.47C137.289 202.096 137.942 202.788 138.556 203.527L162.534 196.693L153.806 167.873Z" fill="#47BAD4"/>
    <path d="M138.557 203.527C139.995 205.257 141.215 207.255 142.211 209.472L162.534 196.693L138.557 203.527Z" fill="#3FADB4"/>
    <path d="M137.208 212.619L141.512 209.913C140.439 207.071 139.281 205.005 138.306 203.599L131.023 205.674C133.33 207.702 135.404 210.044 137.208 212.619Z" fill="#3FADB4"/>
    <path d="M18.5869 135.248C21.488 121.902 26.2092 109.235 32.4725 97.5186L27.0752 76.9314C13.3592 97.5186 4.23491 121.421 1.16406 147.188L18.5869 135.248Z" fill="#6FD0EB"/>
    <path d="M54.5729 66.6338L42.1037 57.6778C36.6275 63.6979 31.603 70.1336 27.0742 76.9314L32.4716 97.5186C38.489 86.2615 45.9443 75.8944 54.5729 66.6338Z" fill="#3FADB4"/>
    <path d="M95.8092 35.6087C94.5824 33.6029 93.7125 31.3699 93.1753 29.0113L71.7502 32.0929C60.8579 39.4065 50.9051 48.0056 42.1055 57.6779L54.5746 66.6339C66.3288 54.0177 80.2679 43.4622 95.8092 35.6087Z" fill="#F25C20"/>
    <path d="M92.5791 24.1365C92.5791 22.736 92.7167 21.3663 92.968 20.038C85.5675 23.5231 78.485 27.5695 71.75 32.0929L93.1751 29.0113C92.817 27.4372 92.5791 25.8175 92.5791 24.1365Z" fill="#F58615"/>
    <path d="M228.092 35.745C228.302 35.8519 228.506 35.9668 228.715 36.0751L228.193 35.5539C228.157 35.6154 228.131 35.6848 228.092 35.745Z" fill="#F7AB0C"/>
    <path d="M18.586 135.248L1.16313 147.188C1.11903 147.555 1.06291 147.92 1.02148 148.289L15.908 152.688C16.4626 146.767 17.3472 140.943 18.586 135.248Z" fill="#42AACE"/>
    <path d="M15.3489 170.973C15.3048 169.495 15.2406 168.022 15.2406 166.534C15.2406 161.862 15.4812 157.248 15.9088 152.688L1.02228 148.289C0.350114 154.279 0 160.367 0 166.538C0 168.345 0.0775087 170.131 0.136306 171.924L15.3489 170.973Z" fill="#41AFB6"/>
    <path d="M15.3493 170.973L0.136719 171.924C0.310439 177.254 0.743399 182.515 1.42091 187.702L17.2535 190.652C16.1898 184.223 15.5484 177.656 15.3493 170.973Z" fill="#348AA3"/>
    <path d="M321.306 139.141C318.305 121.544 312.472 104.918 304.278 89.748L291.689 98.5356C297.29 109.211 301.606 120.661 304.449 132.684L321.306 139.141Z" fill="#8B1631"/>
    <path d="M285.664 62.4044L275.359 73.8432C281.595 81.4736 287.076 89.74 291.69 98.5356L304.279 89.748C299.004 79.9849 292.756 70.8298 285.664 62.4044Z" fill="#EC1A38"/>
    <path d="M231.054 20.2237C231.284 21.4945 231.41 22.8001 231.41 24.1364C231.41 28.3177 230.225 32.2211 228.193 35.5539L228.715 36.0751C244.205 44.0368 258.085 54.6819 269.761 67.3875L266.743 43.3633C255.97 34.1748 243.993 26.3574 231.054 20.2237Z" fill="#F79014"/>
    <path d="M281.699 57.8636L274.238 72.4708C274.618 72.9238 274.984 73.3862 275.358 73.8432L285.662 62.4044C284.368 60.8663 283.049 59.3523 281.699 57.8636Z" fill="#EE3043"/>
    <path d="M266.742 43.3632L269.76 67.3875C271.287 69.0512 272.789 70.7389 274.239 72.4708L281.7 57.8636C277.03 52.7161 272.033 47.8746 266.742 43.3632Z" fill="#F36F16"/>
    <path d="M236.42 174.867H229.518L227 187.438C230.727 183.879 234.339 179.329 236.42 174.867Z" fill="#EF2B50"/>
    <path d="M229.973 172.599H237.344C237.909 170.965 238.23 169.369 238.23 167.873H230.919L229.973 172.599Z" fill="#EF2B50"/>
    <path d="M226.475 187.936C226.65 187.773 226.826 187.605 227.001 187.438L229.519 174.867H210.219L215.198 178.871L226.475 187.936Z" fill="#D71741"/>
    <path d="M207.396 172.599H229.973L230.919 167.873H201.518L204.522 170.289L207.396 172.599Z" fill="#D71741"/>
    <path d="M320.919 162.859L308.18 158.862C308.312 161.405 308.402 163.959 308.402 166.534C308.402 169.047 308.333 171.544 308.208 174.025L320.919 162.859Z" fill="#EC1747"/>
    <path d="M323.59 163.697L320.919 162.859L308.208 174.025C307.836 181.406 306.911 188.639 305.488 195.692L318.547 206.989C321.873 194.061 323.641 180.506 323.641 166.538C323.641 165.586 323.606 164.643 323.59 163.697Z" fill="#D71741"/>
    <path d="M323.591 163.697C323.572 162.65 323.571 161.601 323.534 160.56L320.92 162.859L323.591 163.697Z" fill="#D71741"/>
    <path d="M320.919 162.859L323.533 160.56C323.268 153.284 322.501 146.14 321.307 139.141L304.449 132.684C306.452 141.151 307.718 149.898 308.18 158.862L320.919 162.859Z" fill="#E8183B"/>
    <path d="M305.488 195.692L318.547 206.989" stroke="#C61840" stroke-linecap="round" stroke-linejoin="round"/>
    <path d="M114.049 182.153L109.725 167.873H85.4121C85.4121 170.583 86.4651 173.611 88.1208 176.622L114.049 182.153Z" fill="#42AACE"/>
    <path d="M131.226 168.701L132.281 167.873H124.222L114.049 182.153L131.226 168.701Z" fill="#3A9DB3"/>
    <path d="M114.05 182.153L88.1211 176.622C89.5175 179.162 91.3416 181.685 93.3487 183.994L114.05 182.153Z" fill="#47BAD4"/>
    <path d="M114.048 182.153L93.3477 183.994C94.6973 185.547 96.1218 187.005 97.5504 188.3C98.1677 188.86 98.8078 189.389 99.4546 189.909L110.077 184.263L114.048 182.153Z" fill="#5FCBEE"/>
    <path d="M114.049 182.153L124.222 167.873H109.725L114.049 182.153Z" fill="#47BAD4"/>
</svg>
