<svg width="500" height="638" viewBox="0 0 500 638" fill="none" xmlns="http://www.w3.org/2000/svg">
    <mask id="mask0_5_24" style="mask-type:luminance" maskUnits="userSpaceOnUse" x="0" y="0" width="500" height="598">
    <path d="M385.742 471.355C396.763 485.375 406.836 500.024 415.921 515.2C397.6 543.532 374.675 572.538 349.572 597.927C292.408 467.756 143.304 385.697 0 409.7C11.1003 358.51 30.1622 307.45 57.5676 259.72C92.856 260.27 127.858 264.554 164.23 273.448C217.02 198.312 296.417 140.11 386.225 112.525C406.589 183.725 408.638 261.528 389.616 335.569C402.973 346.961 415.78 358.819 429.52 373.215C462.113 271.033 458.402 155.786 417.774 54.1933C312.296 75.6976 213.55 133.827 144.152 219.35C125.55 215.964 106.854 213.617 88.1678 212.292C171.361 96.5675 303.75 17.8661 447.054 6.44203e-05C518.092 144.197 518.434 322.559 443.309 467.604C414.029 424.669 377.443 385.686 333.502 353.199C352.413 298.798 358.78 237.48 350.526 178.565C282.942 210.456 224.072 263.498 185.544 330.353C154.831 320.016 120.278 312.661 86.0622 309.848C78.3252 325.474 71.5594 341.341 65.7033 357.371C95.4388 358.55 127.802 363.62 158.739 372.94L158.745 372.929C236.278 396.129 308.708 446.184 357.174 514.403C367.365 500.725 376.91 486.374 385.742 471.355Z" fill="white"/>
    </mask>
    <g mask="url(#mask0_5_24)">
    <path d="M385.742 471.355C396.763 485.375 406.836 500.024 415.921 515.2C397.6 543.532 374.675 572.538 349.572 597.927C292.408 467.756 143.304 385.697 0 409.7C11.1003 358.51 30.1622 307.45 57.5676 259.72C92.856 260.27 127.858 264.554 164.23 273.448C217.02 198.312 296.417 140.11 386.225 112.525C406.589 183.725 408.638 261.528 389.616 335.569C402.973 346.961 415.78 358.819 429.52 373.215C462.113 271.033 458.402 155.786 417.774 54.1933C312.296 75.6976 213.55 133.827 144.152 219.35C125.55 215.964 106.854 213.617 88.1678 212.292C171.361 96.5675 303.75 17.8661 447.054 6.44203e-05C518.092 144.197 518.434 322.559 443.309 467.604C414.029 424.669 377.443 385.686 333.502 353.199C352.413 298.798 358.78 237.48 350.526 178.565C282.942 210.456 224.072 263.498 185.544 330.353C154.831 320.016 120.278 312.661 86.0622 309.848C78.3252 325.474 71.5594 341.341 65.7033 357.371C95.4388 358.55 127.802 363.62 158.739 372.94L158.745 372.929C236.278 396.129 308.708 446.184 357.174 514.403C367.365 500.725 376.91 486.374 385.742 471.355Z" fill="url(#paint0_linear_5_24)"/>
    </g>
    <mask id="mask1_5_24" style="mask-type:luminance" maskUnits="userSpaceOnUse" x="85" y="457" width="176" height="181">
    <path d="M138.021 571.611C135.623 554.25 134.41 536.682 134.45 519.052C150.019 525.127 168.228 534.503 184.078 545.738C169.306 555.452 153.916 564.093 138.021 571.611ZM231.887 521.202C203.471 497.042 166.768 476.593 128.56 465.628L128.554 465.639C115.927 461.956 103.153 459.199 90.335 457.346C81.6378 515.397 85.2986 578.607 102.317 637.651C159.323 619.847 213.308 590.28 260.012 548.703C251.37 538.967 241.994 529.765 231.887 521.202Z" fill="white"/>
    </mask>
    <g mask="url(#mask1_5_24)">
    <path d="M138.021 571.611C135.623 554.25 134.41 536.682 134.45 519.052C150.019 525.127 168.228 534.503 184.078 545.738C169.306 555.452 153.916 564.093 138.021 571.611ZM231.887 521.202C203.471 497.042 166.768 476.593 128.56 465.628L128.554 465.639C115.927 461.956 103.153 459.199 90.335 457.346C81.6378 515.397 85.2986 578.607 102.317 637.651C159.323 619.847 213.308 590.28 260.012 548.703C251.37 538.967 241.994 529.765 231.887 521.202Z" fill="url(#paint1_linear_5_24)"/>
    </g>
    <defs>
    <linearGradient id="paint0_linear_5_24" x1="117.673" y1="147.802" x2="503.574" y2="355.776" gradientUnits="userSpaceOnUse">
    <stop stop-color="#63A5DF"/>
    <stop offset="1" stop-color="#3B4BA7"/>
    </linearGradient>
    <linearGradient id="paint1_linear_5_24" x1="58.0673" y1="517.227" x2="227.707" y2="608.651" gradientUnits="userSpaceOnUse">
    <stop stop-color="#63A5DF"/>
    <stop offset="1" stop-color="#3B4BA7"/>
    </linearGradient>
    </defs>
    </svg>
    