<svg width="500" height="500" viewBox="0 0 500 500" fill="none" xmlns="http://www.w3.org/2000/svg">
    <g clip-path="url(#clip0_8_247)">
    <mask id="mask0_8_247" style="mask-type:luminance" maskUnits="userSpaceOnUse" x="210" y="55" width="291" height="101">
    <path d="M500.026 155.67L210.366 93.5744L225.171 55.8321L500.026 155.67Z" fill="white"/>
    </mask>
    <g mask="url(#mask0_8_247)">
    <path d="M500.026 155.67L210.366 93.5744L225.171 55.8321L500.026 155.67Z" fill="url(#paint0_linear_8_247)"/>
    </g>
    <mask id="mask1_8_247" style="mask-type:luminance" maskUnits="userSpaceOnUse" x="412" y="136" width="89" height="20">
    <path d="M426.821 136.833L500.026 155.67L412.78 138.665L426.821 136.833Z" fill="white"/>
    </mask>
    <g mask="url(#mask1_8_247)">
    <path d="M426.821 136.833L500.026 155.67L412.78 138.665L426.821 136.833Z" fill="url(#paint1_linear_8_247)"/>
    </g>
    <mask id="mask2_8_247" style="mask-type:luminance" maskUnits="userSpaceOnUse" x="70" y="219" width="180" height="193">
    <path d="M70.9707 219.585L249.982 408.475L219.953 411.041L70.9707 219.585Z" fill="white"/>
    </mask>
    <g mask="url(#mask2_8_247)">
    <path d="M70.9707 219.585L249.982 408.475L219.953 411.041L70.9707 219.585Z" fill="url(#paint2_linear_8_247)"/>
    </g>
    <mask id="mask3_8_247" style="mask-type:luminance" maskUnits="userSpaceOnUse" x="65" y="83" width="110" height="22">
    <path d="M172.8 88.3596L174.424 92.7111L83.4534 104.165L65.542 83.8582L172.8 88.3596Z" fill="white"/>
    </mask>
    <g mask="url(#mask3_8_247)">
    <path d="M172.8 88.3596L174.424 92.7111L83.4534 104.165L65.542 83.8582L172.8 88.3596Z" fill="url(#paint3_linear_8_247)"/>
    </g>
    <mask id="mask4_8_247" style="mask-type:luminance" maskUnits="userSpaceOnUse" x="59" y="83" width="65" height="57">
    <path d="M123.858 139.43L59.1055 116.562L65.542 83.8578L122.786 95.2787L123.858 139.43Z" fill="white"/>
    </mask>
    <g mask="url(#mask4_8_247)">
    <path d="M123.858 139.43L59.1055 116.562L65.542 83.8578L122.786 95.2787L123.858 139.43Z" fill="url(#paint4_linear_8_247)"/>
    </g>
    <mask id="mask5_8_247" style="mask-type:luminance" maskUnits="userSpaceOnUse" x="70" y="186" width="78" height="99">
    <path d="M120.116 284.292L147.191 224.419L97.3131 186.318L96.1659 186.283L70.9707 219.585L120.116 284.292Z" fill="white"/>
    </mask>
    <g mask="url(#mask5_8_247)">
    <path d="M120.116 284.292L147.191 224.419L97.3131 186.318L96.1659 186.283L70.9707 219.585L120.116 284.292Z" fill="url(#paint5_linear_8_247)"/>
    </g>
    <mask id="mask6_8_247" style="mask-type:luminance" maskUnits="userSpaceOnUse" x="213" y="353" width="102" height="80">
    <path d="M260.16 432.69L314.114 398.695L295.116 353.574L213.68 401.458L260.16 432.69Z" fill="white"/>
    </mask>
    <g mask="url(#mask6_8_247)">
    <path d="M260.16 432.69L314.114 398.695L295.116 353.574L213.68 401.458L260.16 432.69Z" fill="url(#paint6_linear_8_247)"/>
    </g>
    <mask id="mask7_8_247" style="mask-type:luminance" maskUnits="userSpaceOnUse" x="15" y="376" width="35" height="28">
    <path d="M32.6325 376.224L15.7549 403.513L49.5554 389.445L32.6325 376.224Z" fill="white"/>
    </mask>
    <g mask="url(#mask7_8_247)">
    <path d="M32.6325 376.224L15.7549 403.513L49.5554 389.445L32.6325 376.224Z" fill="url(#paint7_linear_8_247)"/>
    </g>
    <mask id="mask8_8_247" style="mask-type:luminance" maskUnits="userSpaceOnUse" x="32" y="376" width="45" height="41">
    <path d="M32.6328 376.224L52.3399 416.332L76.3723 387.284L32.6328 376.224Z" fill="white"/>
    </mask>
    <g mask="url(#mask8_8_247)">
    <path d="M32.6328 376.224L52.3399 416.332L76.3723 387.284L32.6328 376.224Z" fill="url(#paint8_linear_8_247)"/>
    </g>
    <mask id="mask9_8_247" style="mask-type:luminance" maskUnits="userSpaceOnUse" x="45" y="365" width="53" height="53">
    <path d="M86.8337 365.004L45.4355 408.848L97.7873 417.842L86.8337 365.004Z" fill="white"/>
    </mask>
    <g mask="url(#mask9_8_247)">
    <path d="M86.8337 365.004L45.4355 408.848L97.7873 417.842L86.8337 365.004Z" fill="url(#paint9_linear_8_247)"/>
    </g>
    <mask id="mask10_8_247" style="mask-type:luminance" maskUnits="userSpaceOnUse" x="272" y="225" width="82" height="57">
    <path d="M353.985 225.177L281.613 281.922L272.191 257.251L353.985 225.177Z" fill="white"/>
    </mask>
    <g mask="url(#mask10_8_247)">
    <path d="M353.985 225.177L281.613 281.922L272.191 257.251L353.985 225.177Z" fill="url(#paint10_linear_8_247)"/>
    </g>
    <mask id="mask11_8_247" style="mask-type:luminance" maskUnits="userSpaceOnUse" x="265" y="257" width="56" height="142">
    <path d="M265.189 296.794L314.114 398.694L320.402 340.541L272.191 257.251L265.189 296.794Z" fill="white"/>
    </mask>
    <g mask="url(#mask11_8_247)">
    <path d="M265.189 296.794L314.114 398.694L320.402 340.541L272.191 257.251L265.189 296.794Z" fill="url(#paint11_linear_8_247)"/>
    </g>
    <mask id="mask12_8_247" style="mask-type:luminance" maskUnits="userSpaceOnUse" x="95" y="95" width="62" height="130">
    <path d="M147.191 224.42L156.144 141.681L122.786 95.2794L95.4375 193.02L147.191 224.42Z" fill="white"/>
    </mask>
    <g mask="url(#mask12_8_247)">
    <path d="M147.191 224.42L156.144 141.681L122.786 95.2794L95.4375 193.02L147.191 224.42Z" fill="url(#paint12_linear_8_247)"/>
    </g>
    <mask id="mask13_8_247" style="mask-type:luminance" maskUnits="userSpaceOnUse" x="95" y="186" width="3" height="8">
    <path d="M97.3134 186.318L95.4375 193.02L96.1662 186.281L97.3134 186.318Z" fill="white"/>
    </mask>
    <g mask="url(#mask13_8_247)">
    <path d="M97.3134 186.318L95.4375 193.02L96.1662 186.281L97.3134 186.318Z" fill="url(#paint13_linear_8_247)"/>
    </g>
    <mask id="mask14_8_247" style="mask-type:luminance" maskUnits="userSpaceOnUse" x="272" y="256" width="13" height="24">
    <path d="M284.956 279.303L274.904 256.189L272.191 257.251L284.956 279.303Z" fill="white"/>
    </mask>
    <g mask="url(#mask14_8_247)">
    <path d="M284.956 279.303L274.904 256.189L272.191 257.251L284.956 279.303Z" fill="url(#paint14_linear_8_247)"/>
    </g>
    <mask id="mask15_8_247" style="mask-type:luminance" maskUnits="userSpaceOnUse" x="225" y="55" width="204" height="129">
    <path d="M426.822 136.833L428.56 183.74L225.171 55.8323L426.822 136.833Z" fill="white"/>
    </mask>
    <g mask="url(#mask15_8_247)">
    <path d="M426.822 136.833L428.56 183.74L225.171 55.8323L426.822 136.833Z" fill="url(#paint15_linear_8_247)"/>
    </g>
    <mask id="mask16_8_247" style="mask-type:luminance" maskUnits="userSpaceOnUse" x="126" y="55" width="100" height="278">
    <path d="M225.171 55.8318L158.523 332.096L126.898 297.601L225.171 55.8318Z" fill="white"/>
    </mask>
    <g mask="url(#mask16_8_247)">
    <path d="M225.171 55.8318L158.523 332.096L126.898 297.601L225.171 55.8318Z" fill="url(#paint16_linear_8_247)"/>
    </g>
    <mask id="mask17_8_247" style="mask-type:luminance" maskUnits="userSpaceOnUse" x="126" y="55" width="100" height="257">
    <path d="M225.171 55.8313L126.898 297.601L137.812 311.175L199.608 294.273L225.171 55.8313Z" fill="white"/>
    </mask>
    <g mask="url(#mask17_8_247)">
    <path d="M225.171 55.8313L126.898 297.601L137.812 311.175L199.608 294.273L225.171 55.8313Z" fill="url(#paint17_linear_8_247)"/>
    </g>
    <mask id="mask18_8_247" style="mask-type:luminance" maskUnits="userSpaceOnUse" x="225" y="55" width="75" height="196">
    <path d="M264.735 250.258L299.904 201.632L225.171 55.8314L264.735 250.258Z" fill="white"/>
    </mask>
    <g mask="url(#mask18_8_247)">
    <path d="M264.735 250.258L299.904 201.632L225.171 55.8314L264.735 250.258Z" fill="url(#paint18_linear_8_247)"/>
    </g>
    <mask id="mask19_8_247" style="mask-type:luminance" maskUnits="userSpaceOnUse" x="225" y="55" width="132" height="161">
    <path d="M356.813 215.866L225.171 55.8314L299.904 201.632L356.813 215.866Z" fill="white"/>
    </mask>
    <g mask="url(#mask19_8_247)">
    <path d="M356.813 215.866L225.171 55.8314L299.904 201.632L356.813 215.866Z" fill="url(#paint19_linear_8_247)"/>
    </g>
    <mask id="mask20_8_247" style="mask-type:luminance" maskUnits="userSpaceOnUse" x="225" y="55" width="138" height="161">
    <path d="M356.813 215.866L362.279 172.622L225.171 55.8314L356.813 215.866Z" fill="white"/>
    </mask>
    <g mask="url(#mask20_8_247)">
    <path d="M356.813 215.866L362.279 172.622L225.171 55.8314L356.813 215.866Z" fill="url(#paint20_linear_8_247)"/>
    </g>
    <mask id="mask21_8_247" style="mask-type:luminance" maskUnits="userSpaceOnUse" x="225" y="55" width="204" height="129">
    <path d="M362.279 172.623L428.56 183.74L225.171 55.8323L362.279 172.623Z" fill="white"/>
    </mask>
    <g mask="url(#mask21_8_247)">
    <path d="M362.279 172.623L428.56 183.74L225.171 55.8323L362.279 172.623Z" fill="url(#paint21_linear_8_247)"/>
    </g>
    <mask id="mask22_8_247" style="mask-type:luminance" maskUnits="userSpaceOnUse" x="191" y="225" width="16" height="70">
    <path d="M191.738 241.043L199.608 294.273L206.853 225.201L191.738 241.043Z" fill="white"/>
    </mask>
    <g mask="url(#mask22_8_247)">
    <path d="M191.738 241.043L199.608 294.273L206.853 225.201L191.738 241.043Z" fill="url(#paint22_linear_8_247)"/>
    </g>
    <mask id="mask23_8_247" style="mask-type:luminance" maskUnits="userSpaceOnUse" x="191" y="55" width="74" height="196">
    <path d="M191.738 241.042L264.735 250.258L225.171 55.8314L191.738 241.042Z" fill="white"/>
    </mask>
    <g mask="url(#mask23_8_247)">
    <path d="M191.738 241.042L264.735 250.258L225.171 55.8314L191.738 241.042Z" fill="url(#paint23_linear_8_247)"/>
    </g>
    <mask id="mask24_8_247" style="mask-type:luminance" maskUnits="userSpaceOnUse" x="58" y="219" width="203" height="214">
    <path d="M70.9711 219.585L260.16 432.69L146.639 420.415L58.4014 291.789L70.9711 219.585Z" fill="white"/>
    </mask>
    <g mask="url(#mask24_8_247)">
    <path d="M70.9711 219.585L260.16 432.69L146.639 420.415L58.4014 291.789L70.9711 219.585Z" fill="url(#paint24_linear_8_247)"/>
    </g>
    <mask id="mask25_8_247" style="mask-type:luminance" maskUnits="userSpaceOnUse" x="46" y="219" width="91" height="180">
    <path d="M70.9711 219.585L136.252 325.612L87.5924 398.684L46.0635 263.992L70.9711 219.585Z" fill="white"/>
    </mask>
    <g mask="url(#mask25_8_247)">
    <path d="M70.9711 219.585L136.252 325.612L87.5924 398.684L46.0635 263.992L70.9711 219.585Z" fill="url(#paint25_linear_8_247)"/>
    </g>
    <mask id="mask26_8_247" style="mask-type:luminance" maskUnits="userSpaceOnUse" x="-1" y="404" width="45" height="40">
    <path d="M30.8646 404.496L-0.0175781 443.933L43.246 431.94L30.8646 404.496Z" fill="white"/>
    </mask>
    <g mask="url(#mask26_8_247)">
    <path d="M30.8646 404.496L-0.0175781 443.933L43.246 431.94L30.8646 404.496Z" fill="url(#paint26_linear_8_247)"/>
    </g>
    <mask id="mask27_8_247" style="mask-type:luminance" maskUnits="userSpaceOnUse" x="30" y="404" width="49" height="36">
    <path d="M42.4699 439.078L30.8643 404.497L78.7304 409.676L42.4699 439.078Z" fill="white"/>
    </mask>
    <g mask="url(#mask27_8_247)">
    <path d="M42.4699 439.078L30.8643 404.497L78.7304 409.676L42.4699 439.078Z" fill="url(#paint27_linear_8_247)"/>
    </g>
    <mask id="mask28_8_247" style="mask-type:luminance" maskUnits="userSpaceOnUse" x="42" y="325" width="95" height="120">
    <path d="M136.251 325.612L125.233 427.476L89.9348 444.21L42.4697 439.078L136.251 325.612Z" fill="white"/>
    </mask>
    <g mask="url(#mask28_8_247)">
    <path d="M136.251 325.612L125.233 427.476L89.9348 444.21L42.4697 439.078L136.251 325.612Z" fill="url(#paint28_linear_8_247)"/>
    </g>
    </g>
    <defs>
    <linearGradient id="paint0_linear_8_247" x1="210.825" y1="89.3397" x2="503.773" y2="121.015" gradientUnits="userSpaceOnUse">
    <stop stop-color="white"/>
    <stop offset="1" stop-color="#FAFAFB"/>
    </linearGradient>
    <linearGradient id="paint1_linear_8_247" x1="427.472" y1="139.27" x2="497.43" y2="153.148" gradientUnits="userSpaceOnUse">
    <stop stop-color="#C0C1C1"/>
    <stop offset="1" stop-color="#EEEFF0"/>
    </linearGradient>
    <linearGradient id="paint2_linear_8_247" x1="221.234" y1="394.305" x2="115.154" y2="274.941" gradientUnits="userSpaceOnUse">
    <stop stop-color="#C0C1C1"/>
    <stop offset="1" stop-color="#EEEFF0"/>
    </linearGradient>
    <linearGradient id="paint3_linear_8_247" x1="173" y1="90.9189" x2="89.3992" y2="93.5437" gradientUnits="userSpaceOnUse">
    <stop stop-color="white"/>
    <stop offset="1" stop-color="#DFE0DF"/>
    </linearGradient>
    <linearGradient id="paint4_linear_8_247" x1="63.6034" y1="102.378" x2="122.005" y2="117.024" gradientUnits="userSpaceOnUse">
    <stop stop-color="white"/>
    <stop offset="1" stop-color="#D5D5D6"/>
    </linearGradient>
    <linearGradient id="paint5_linear_8_247" x1="120.854" y1="208.481" x2="98.9901" y2="246.023" gradientUnits="userSpaceOnUse">
    <stop stop-color="#EEEFF0"/>
    <stop offset="1" stop-color="white"/>
    </linearGradient>
    <linearGradient id="paint6_linear_8_247" x1="249.947" y1="410.089" x2="304.491" y2="370.935" gradientUnits="userSpaceOnUse">
    <stop stop-color="#B5B7B7"/>
    <stop offset="1" stop-color="#E3E4E3"/>
    </linearGradient>
    <linearGradient id="paint7_linear_8_247" x1="40.3591" y1="383.431" x2="15.9738" y2="403.237" gradientUnits="userSpaceOnUse">
    <stop stop-color="#949899"/>
    <stop offset="1" stop-color="#D5D5D6"/>
    </linearGradient>
    <linearGradient id="paint8_linear_8_247" x1="64.5697" y1="378.342" x2="38.892" y2="399.198" gradientUnits="userSpaceOnUse">
    <stop stop-color="#949899"/>
    <stop offset="1" stop-color="#D5D5D6"/>
    </linearGradient>
    <linearGradient id="paint9_linear_8_247" x1="97.5154" y1="387.195" x2="55.9948" y2="420.918" gradientUnits="userSpaceOnUse">
    <stop stop-color="#949899"/>
    <stop offset="1" stop-color="#D5D5D6"/>
    </linearGradient>
    <linearGradient id="paint10_linear_8_247" x1="276.979" y1="269.539" x2="347.948" y2="224.346" gradientUnits="userSpaceOnUse">
    <stop stop-color="#CCCDCD"/>
    <stop offset="1" stop-color="white"/>
    </linearGradient>
    <linearGradient id="paint11_linear_8_247" x1="313.103" y1="362.364" x2="259.732" y2="270.363" gradientUnits="userSpaceOnUse">
    <stop stop-color="white"/>
    <stop offset="1" stop-color="#E3E4E3"/>
    </linearGradient>
    <linearGradient id="paint12_linear_8_247" x1="139.004" y1="106.181" x2="122.636" y2="201.059" gradientUnits="userSpaceOnUse">
    <stop stop-color="#EEEFF0"/>
    <stop offset="1" stop-color="white"/>
    </linearGradient>
    <linearGradient id="paint13_linear_8_247" x1="96.9054" y1="189.341" x2="94.6892" y2="189.961" gradientUnits="userSpaceOnUse">
    <stop stop-color="#D3D3D3"/>
    <stop offset="1" stop-color="#F7F8F8"/>
    </linearGradient>
    <linearGradient id="paint14_linear_8_247" x1="274.519" y1="257.3" x2="282.905" y2="280.002" gradientUnits="userSpaceOnUse">
    <stop stop-color="#A5A9AA"/>
    <stop offset="1" stop-color="#DFE2E1"/>
    </linearGradient>
    <linearGradient id="paint15_linear_8_247" x1="321.381" y1="141" x2="330.57" y2="105.46" gradientUnits="userSpaceOnUse">
    <stop stop-color="white"/>
    <stop offset="1" stop-color="#EEEFF0"/>
    </linearGradient>
    <linearGradient id="paint16_linear_8_247" x1="141.979" y1="317.521" x2="155.232" y2="269.156" gradientUnits="userSpaceOnUse">
    <stop stop-color="#B5B7B7"/>
    <stop offset="1" stop-color="#D5D5D6"/>
    </linearGradient>
    <linearGradient id="paint17_linear_8_247" x1="161.144" y1="301.316" x2="238.833" y2="103.183" gradientUnits="userSpaceOnUse">
    <stop stop-color="#DADADA"/>
    <stop offset="1" stop-color="white"/>
    </linearGradient>
    <linearGradient id="paint18_linear_8_247" x1="271.142" y1="145.228" x2="239.45" y2="154.686" gradientUnits="userSpaceOnUse">
    <stop stop-color="white"/>
    <stop offset="1" stop-color="#EEEFF0"/>
    </linearGradient>
    <linearGradient id="paint19_linear_8_247" x1="274.102" y1="147.568" x2="298.061" y2="130.946" gradientUnits="userSpaceOnUse">
    <stop stop-color="white"/>
    <stop offset="1" stop-color="#EEEFF0"/>
    </linearGradient>
    <linearGradient id="paint20_linear_8_247" x1="304.873" y1="122.313" x2="288.052" y2="138.716" gradientUnits="userSpaceOnUse">
    <stop stop-color="white"/>
    <stop offset="1" stop-color="#EEEFF0"/>
    </linearGradient>
    <linearGradient id="paint21_linear_8_247" x1="316.254" y1="133.08" x2="329.784" y2="116.132" gradientUnits="userSpaceOnUse">
    <stop stop-color="white"/>
    <stop offset="1" stop-color="#EEEFF0"/>
    </linearGradient>
    <linearGradient id="paint22_linear_8_247" x1="198.731" y1="242.565" x2="195.863" y2="290.579" gradientUnits="userSpaceOnUse">
    <stop stop-color="#C1C2C3"/>
    <stop offset="1" stop-color="#E7E9E9"/>
    </linearGradient>
    <linearGradient id="paint23_linear_8_247" x1="258.058" y1="154.123" x2="205.004" y2="149.759" gradientUnits="userSpaceOnUse">
    <stop stop-color="#EEEFF0"/>
    <stop offset="1" stop-color="white"/>
    </linearGradient>
    <linearGradient id="paint24_linear_8_247" x1="71.8707" y1="233.322" x2="200.493" y2="423.023" gradientUnits="userSpaceOnUse">
    <stop stop-color="white"/>
    <stop offset="1" stop-color="#E3E4E3"/>
    </linearGradient>
    <linearGradient id="paint25_linear_8_247" x1="43.1032" y1="252.118" x2="112.569" y2="361.592" gradientUnits="userSpaceOnUse">
    <stop stop-color="white"/>
    <stop offset="1" stop-color="#EEEFF0"/>
    </linearGradient>
    <linearGradient id="paint26_linear_8_247" x1="36.4277" y1="418.729" x2="2.50683" y2="446.28" gradientUnits="userSpaceOnUse">
    <stop stop-color="#C0C1C1"/>
    <stop offset="1" stop-color="#EEEFF0"/>
    </linearGradient>
    <linearGradient id="paint27_linear_8_247" x1="58.8838" y1="419.333" x2="52.3435" y2="399.731" gradientUnits="userSpaceOnUse">
    <stop stop-color="#CCCDCD"/>
    <stop offset="1" stop-color="#EEEFF0"/>
    </linearGradient>
    <linearGradient id="paint28_linear_8_247" x1="143.411" y1="351.048" x2="76.8125" y2="442.996" gradientUnits="userSpaceOnUse">
    <stop stop-color="white"/>
    <stop offset="1" stop-color="#EEEFF0"/>
    </linearGradient>
    <clipPath id="clip0_8_247">
    <rect width="500" height="500" fill="white"/>
    </clipPath>
    </defs>
    </svg>
    