<svg width="366" height="366" viewBox="0 0 366 366" fill="none" xmlns="http://www.w3.org/2000/svg">
    <path d="M1.65918 200.36H39.429V263.786H77.4395V200.36H145.521V263.786H183.773V103.54H145.521V166.485H77.4395V200.36H39.429V166.485H1.65918V200.36ZM39.429 166.485H77.4395V103.54H39.429V166.485Z" fill="#46F3B5"/>
    <path d="M39.429 200.36H1.65918V166.485H39.429M39.429 200.36V263.786H77.4395V200.36M39.429 200.36H77.4395M39.429 200.36V166.485M77.4395 200.36H145.521V263.786H183.773V103.54H145.521V166.485H77.4395M77.4395 200.36V166.485M77.4395 166.485H39.429M77.4395 166.485V103.54H39.429V166.485" stroke="#46DCF3" stroke-miterlimit="2"/>
    <path d="M39.429 200.36H1.65918V166.485H39.429M39.429 200.36V263.786H77.4395V200.36M39.429 200.36H77.4395M39.429 200.36V166.485M77.4395 200.36H145.521V263.786H183.773V103.54H145.521V166.485H77.4395M77.4395 200.36V166.485M77.4395 166.485H39.429M77.4395 166.485V103.54H39.429V166.485" stroke="black" stroke-opacity="0.2" stroke-miterlimit="2"/>
    <path d="M39.429 200.36H1.65918V166.485H39.429M39.429 200.36V263.786H77.4395V200.36M39.429 200.36H77.4395M39.429 200.36V166.485M77.4395 200.36H145.521V263.786H183.773V103.54H145.521V166.485H77.4395M77.4395 200.36V166.485M77.4395 166.485H39.429M77.4395 166.485V103.54H39.429V166.485" stroke="black" stroke-opacity="0.2" stroke-miterlimit="2"/>
    <path d="M328.699 207.328C320.999 219.821 306.806 227.989 290.928 227.989C266.15 227.989 246.183 208.048 246.183 183.303C246.183 158.797 266.15 138.616 290.928 138.616C306.806 138.616 320.999 147.025 328.699 159.518L363.341 142.701C348.907 117.474 321.963 100.657 290.928 100.657C244.98 100.657 207.931 137.655 207.931 183.543C207.931 229.431 244.98 266.429 290.928 266.429C321.963 266.429 349.147 249.371 363.341 224.145L328.699 207.328Z" fill="#46F3B5"/>
    <path d="M328.699 207.328C320.999 219.821 306.806 227.989 290.928 227.989C266.15 227.989 246.183 208.048 246.183 183.303C246.183 158.797 266.15 138.616 290.928 138.616C306.806 138.616 320.999 147.025 328.699 159.518L363.341 142.701C348.907 117.474 321.963 100.657 290.928 100.657C244.98 100.657 207.931 137.655 207.931 183.543C207.931 229.431 244.98 266.429 290.928 266.429C321.963 266.429 349.147 249.371 363.341 224.145L328.699 207.328Z" stroke="#46DCF3" stroke-miterlimit="2"/>
    <path d="M328.699 207.328C320.999 219.821 306.806 227.989 290.928 227.989C266.15 227.989 246.183 208.048 246.183 183.303C246.183 158.797 266.15 138.616 290.928 138.616C306.806 138.616 320.999 147.025 328.699 159.518L363.341 142.701C348.907 117.474 321.963 100.657 290.928 100.657C244.98 100.657 207.931 137.655 207.931 183.543C207.931 229.431 244.98 266.429 290.928 266.429C321.963 266.429 349.147 249.371 363.341 224.145L328.699 207.328Z" stroke="black" stroke-opacity="0.2" stroke-miterlimit="2"/>
    <path d="M328.699 207.328C320.999 219.821 306.806 227.989 290.928 227.989C266.15 227.989 246.183 208.048 246.183 183.303C246.183 158.797 266.15 138.616 290.928 138.616C306.806 138.616 320.999 147.025 328.699 159.518L363.341 142.701C348.907 117.474 321.963 100.657 290.928 100.657C244.98 100.657 207.931 137.655 207.931 183.543C207.931 229.431 244.98 266.429 290.928 266.429C321.963 266.429 349.147 249.371 363.341 224.145L328.699 207.328Z" stroke="black" stroke-opacity="0.2" stroke-miterlimit="2"/>
    </svg>
    