<svg width="599" height="599" viewBox="0 0 599 599" fill="none" xmlns="http://www.w3.org/2000/svg">
    <path d="M494.373 323.877C494.607 301.076 489.49 280.59 471.288 264.983C454.137 250.288 433.119 246.166 410.86 245.663C413.175 246.412 415.5 247.123 417.803 247.912C433.58 253.267 448.577 259.964 461.289 270.916C478.682 285.896 485.14 304.57 481.407 326.686C477.618 349.13 465.812 367.908 452.177 387.15C455.657 375.64 459.618 365.511 461.715 355.018C466.608 330.523 461.121 309.121 439.092 294.029C427.629 286.176 414.486 282.056 400.772 279.861C367.933 274.605 335.599 277.925 304.393 288.255C255.498 304.441 217.522 334.722 190.098 377.386C186.664 382.721 184.177 388.846 182.304 394.911C174.979 418.64 184.007 436.097 208.079 444.381C216.64 447.33 225.691 448.918 236.007 451.502C210.28 453.228 186.179 452.705 163.63 442.448C134.91 429.4 121.537 405.74 126.921 375.315C129.411 361.241 133.933 346.945 140.543 334.242C163.939 289.276 201.192 257.596 246.998 235.643C298.985 210.73 354.234 202.919 411.602 209.902C430.871 212.239 449.221 217.979 465.309 228.956C493.128 247.951 500.821 275.124 497.37 306.497C496.729 312.328 495.39 318.086 494.373 323.877Z" fill="#4742A2"/>
    <path d="M288.21 79.3934C274.341 83.8527 262.922 90.0407 257.948 104.529C274.803 104.381 287.339 93.9697 288.21 79.3934ZM481.748 122.965C495.469 141.372 504.591 161.026 501.159 184.403C498.719 201.023 490.891 215.245 479.683 229.242C482.166 221.021 484.741 214.096 486.318 206.965C491.898 181.722 482.483 161.763 459.445 149.141C440.924 138.985 420.63 134.85 399.849 132.915C358.788 129.104 318.137 132.159 278.068 141.657C259.444 146.067 241.596 152.844 226.652 164.906C220.024 170.259 215.021 177.547 209.361 183.863C199.09 172.892 196.892 154.367 206.966 139.702C213.631 130.008 223.018 122.14 230.896 113.212C233.249 110.54 235.721 107.21 236.262 103.89C239.959 81.2203 252.896 65.3573 273.538 55.8297C284.007 50.9971 295.327 47.7066 306.538 44.7108C325.595 39.6131 343.804 33.1402 357.061 17.9353C361.902 12.3759 365.495 5.77525 369.424 -0.00025152C373.216 8.26029 370.689 20.9115 358.737 49.3175C371.15 49.3175 382.953 48.6692 394.658 49.4452C426.683 51.5864 457.026 59.405 483.347 78.3522C523.126 106.974 530.702 152.226 512.93 191.741C515.36 173.962 513.49 157.029 502.745 141.961C497.212 134.212 490.457 127.64 481.748 122.965Z" fill="#8B75C1"/>
    <path d="M398.955 450.739C370.285 469.396 340.009 483.605 304.615 482.333C296.44 482.047 288.014 480.558 280.272 477.984C246.736 466.852 236.092 433.739 256.322 405.222C267.943 388.843 283.927 378.075 302.656 371.124C329.14 361.292 356.639 358.709 384.547 362.929C431.588 370.049 457.84 404.374 451.59 450.503C447.118 483.506 430.498 510.584 406.778 533.845C402.641 537.908 398.15 541.616 395.04 544.396C403.412 531.173 413.325 517.151 421.458 502.202C429.842 486.8 432.356 469.731 430.816 452.12C429.799 456.577 428.937 461.063 427.739 465.471C420.124 493.446 404.039 516.421 383.45 536.744C358.491 561.377 329.275 580.289 298.478 597.072C297.818 597.437 297.057 597.615 297.742 597.368C314.675 583.544 333.027 569.472 350.287 554.228C369.922 536.883 387.743 517.772 400.134 494.6C403.939 487.49 407.044 479.838 409.174 472.098C414.938 451.134 406.348 432.507 386.271 423.08C363.195 412.243 339.714 412.933 316.642 423.376C305.353 428.483 299.33 436.806 301.011 444.724C303.299 455.512 312.622 458.618 321.918 460.393C339.842 463.814 357.604 461.389 375.121 457.139C383.115 455.196 391.013 452.889 398.955 450.739Z" fill="#27265C"/>
    <path d="M116.422 420.105C90.7628 402.76 78.1714 379.687 77.0843 350.707C75.8767 318.562 87.7434 290.523 106.53 264.947C127.125 236.911 153.797 215.911 184.507 199.628C185.18 199.274 185.894 198.989 186.953 199.284C178.388 206.477 169.567 213.395 161.304 220.913C132.437 247.18 108.885 277.109 97.4249 314.878C86.1565 352.014 90.4014 386.634 115.566 417.589C115.803 417.874 115.832 418.336 116.422 420.105Z" fill="#4842A2"/>
    <path d="M313.551 172.879C357.526 159.052 401.549 153.302 444.395 176.405C461.914 185.853 471.221 200.783 468.687 220.944C468.185 220.867 467.571 220.877 467.534 220.743C461.522 199.326 445.297 187.243 424.963 179.424C390.242 166.085 354.513 166.823 318.495 173.598C316.835 173.904 315.168 174.182 313.504 174.479C313.52 173.942 313.536 173.415 313.551 172.879Z" fill="#4842A2"/>
    <path d="M298.98 331.823C336.627 315.315 375.152 304.701 415.529 322.471C436.744 331.808 447.213 350.869 444.931 373.24C444.728 375.228 444.173 377.185 443.89 378.613C440.746 370.294 438.574 361.415 434.237 353.735C425.468 338.196 410.346 330.905 393.513 326.911C363.822 319.867 334.482 323.787 305.277 330.248C303.165 330.716 301.078 331.296 298.98 331.823Z" fill="#302B6D"/>
    </svg>
    