<svg width="500" height="500" viewBox="0 0 500 500" fill="none" xmlns="http://www.w3.org/2000/svg">
    <path d="M28 0C174.52 0 321.04 0 472 0C468.734 8.18487 465.084 15.3592 460.595 22.8556C459.845 24.1207 459.094 25.3859 458.321 26.6894C456.716 29.3916 455.108 32.0919 453.497 34.7902C450.428 39.931 447.371 45.0791 444.333 50.2384C442.676 53.0002 440.981 55.7393 439.241 58.4487C433.337 67.8006 428.876 77.0334 424.843 87.3428C418.074 103.481 409.575 123.251 392.769 130.925C369.373 138.298 342.959 135.747 318.815 134.78C308.574 134.43 298.332 134.4 288.086 134.334C268.732 134.162 249.395 133.706 230.049 133.146C208.005 132.522 185.961 132.218 163.911 131.939C118.595 131.359 73.3037 130.34 28 129.14C28 86.5236 28 43.9075 28 0Z" fill="#4E5EE4"/>
    <path d="M309.125 145.026C311.336 145.032 313.547 145.037 315.825 145.043C322.816 145.065 329.808 145.115 336.8 145.165C341.569 145.185 346.339 145.203 351.109 145.219C362.739 145.262 374.37 145.328 386 145.412C382.879 153.46 379.061 160.738 374.619 168.124C373.883 169.361 373.146 170.599 372.387 171.873C369.968 175.931 367.539 179.983 365.108 184.034C363.403 186.889 361.698 189.744 359.994 192.599C348.628 211.614 337.145 230.557 325.599 249.464C313.465 269.336 301.538 289.327 289.664 309.355C278.634 327.957 267.481 346.479 256.2 364.931C243.45 385.787 230.971 406.788 218.689 427.922C216.767 431.218 214.842 434.515 212.797 437.736C208.05 445.335 204.672 452.817 201.524 461.213C195.951 474.527 190.285 486.259 178.32 494.866C156.448 503.059 129.533 499.314 106.736 497.984C97.8565 497.515 88.9708 497.311 80.0821 497.083C62.7052 496.599 45.3571 495.827 28 494.866C33.2784 484.118 38.5926 473.523 44.8894 463.323C46.1808 461.218 47.4722 459.114 48.8027 456.945C49.4798 455.849 50.1569 454.753 50.8545 453.624C54.5917 447.573 58.3004 441.504 62.0106 435.436C63.1763 433.531 63.1763 433.531 64.3655 431.587C73.142 417.22 81.7226 402.737 90.3039 388.253C102.052 368.436 113.897 348.684 125.906 329.023C138.114 309.03 150.165 288.949 162.126 268.807C163.726 266.115 165.326 263.423 166.926 260.732C173.789 249.184 180.639 237.63 187.461 226.058C189.523 222.58 191.586 219.102 193.649 215.624C194.521 214.132 195.392 212.641 196.29 211.104C210.15 187.819 226.511 169.624 250.39 156.517C251.569 155.858 252.749 155.199 253.964 154.52C271.394 145.42 289.814 144.839 309.125 145.026Z" fill="#63B0F9"/>
    <path d="M352.741 365.192C356.188 365.199 359.635 365.205 363.082 365.209C372.102 365.224 381.121 365.263 390.141 365.307C400.991 365.356 411.841 365.374 422.692 365.397C439.128 365.435 455.564 365.512 472 365.581C472 408.289 472 450.997 472 495C380.26 495 288.52 495 194 495C217.233 454.233 217.233 454.233 225.647 439.748C227.588 436.341 227.588 436.341 229.568 432.865C247.86 401.51 271.015 377.925 306.32 367.466C321.514 364.173 337.277 365.094 352.741 365.192Z" fill="#63D2F9"/>
    </svg>
    