<svg width="300" height="300" viewBox="0 0 300 300" fill="none" xmlns="http://www.w3.org/2000/svg">
    <path fill-rule="evenodd" clip-rule="evenodd" d="M101.643 59.5901L118.472 27.9763H82.9627L65.6601 59.5901L61.3342 67.5058L57.0086 75.3979L83.2424 93.2325L86.9228 95.7342L91.8939 99.1196L103.515 107.035L118.472 117.192L150.021 138.649L181.571 117.192L196.528 107.035L208.15 99.1196L213.121 95.7342L216.801 93.2325L243.012 75.3979L240.086 70.0495L238.686 67.5058L234.36 59.5901L217.058 27.9763H213.121H181.571L198.379 59.5901L202.705 67.5058L204.879 71.4518L150.021 107.035L95.165 71.4518L97.3168 67.5058L101.643 59.5901ZM225.302 14H74.6986L0 150.511L74.6986 287H225.302L300 150.511L225.302 14ZM10.1147 146.543L78.8307 20.9881H221.191L289.885 146.543H10.1147ZM92.9916 225.602H193.579L200.121 231.276L202.705 233.496L198.379 241.41H198.357H181.549H149.999H118.451H101.686H101.643L97.3168 233.496L92.9916 225.602ZM220.007 201.88H80.057H80.0144L75.6888 193.988H75.7318H86.9011H118.451H149.999H181.549H213.121H224.289H224.333L220.307 201.342L220.007 201.88ZM23.8019 162.351H22.4247L23.8019 164.874L39.7058 193.988L44.0317 201.88L48.3573 209.794L55.3515 222.562L61.3342 233.496L65.6601 241.41L66.6283 243.179L82.9627 273.026H86.9011H118.451H118.967H149.999H181.055H181.549H213.121H217.058L234.36 241.41L238.686 233.496L217.554 215.187L233.156 209.794L244.67 205.806L255.99 201.88L260.316 193.988L276.218 164.916V164.896L277.596 162.351H276.218H252.309H244.67H241.635H241.571H213.121H181.549H149.999H118.451H86.9011H58.4507H58.386H55.3515H46.1836H23.8019ZM221.191 280.014H78.8307L10.1147 154.459H289.885L221.191 280.014Z" fill="#67C976"/>
    </svg>
    