<?xml version="1.0" standalone="no"?>
<!DOCTYPE svg PUBLIC "-//W3C//DTD SVG 20010904//EN"
 "http://www.w3.org/TR/2001/REC-SVG-20010904/DTD/svg10.dtd">
<svg version="1.0" xmlns="http://www.w3.org/2000/svg"
 width="700.000000pt" height="700.000000pt" viewBox="0 0 700.000000 700.000000"
 preserveAspectRatio="xMidYMid meet">
<metadata>
Created by potrace 1.14, written by Peter Selinger 2001-2017
</metadata>
<g transform="translate(0.000000,700.000000) scale(0.100000,-0.100000)"
fill="#000000" stroke="none">
<path d="M4250 6897 c-141 -215 -309 -319 -675 -422 -304 -84 -440 -143 -558
-240 -126 -104 -197 -219 -243 -393 -31 -114 -41 -129 -196 -291 -176 -183
-226 -271 -233 -406 -5 -95 27 -202 83 -273 l18 -23 61 73 c34 40 76 88 94
107 102 102 297 210 501 275 121 39 426 103 573 120 22 3 78 10 124 15 199 25
534 32 741 17 58 -5 112 -8 120 -8 46 0 290 -40 371 -61 337 -88 550 -237 630
-440 30 -74 31 -81 35 -192 4 -115 -19 -230 -84 -415 -3 -8 6 -1 19 15 13 17
26 32 29 35 13 10 101 162 124 213 132 290 100 584 -95 874 -27 40 -49 75 -49
78 0 8 65 -39 123 -88 101 -84 202 -261 227 -397 14 -74 18 -195 9 -257 -3
-23 -2 -40 3 -37 4 3 8 13 8 23 0 9 4 21 9 27 5 5 19 43 31 84 187 660 -185
1217 -958 1434 -202 57 -392 79 -683 80 l-216 1 29 70 c95 229 136 431 100
490 -4 7 -33 -28 -72 -88z m-880 -829 c0 -2 -7 -27 -14 -56 -18 -68 -60 -126
-121 -169 -59 -41 -215 -81 -215 -55 0 11 30 72 44 91 41 51 105 105 158 132
78 39 148 66 148 57z"/>
<path d="M4175 5100 c-66 -10 -151 -25 -190 -34 -38 -9 -81 -19 -95 -22 -14
-2 -38 -9 -55 -14 -16 -5 -63 -18 -104 -30 -91 -27 -81 -43 14 -24 39 7 95 16
125 19 30 3 62 8 70 10 39 10 210 19 350 18 242 -1 419 -31 635 -105 242 -84
405 -210 491 -382 24 -48 44 -94 44 -102 0 -30 20 -12 21 19 5 130 -27 235
-101 333 -92 122 -321 239 -586 300 -104 23 -144 27 -309 29 -142 2 -220 -2
-310 -15z"/>
<path d="M2125 4652 c-16 -10 -74 -45 -129 -78 -160 -96 -241 -154 -371 -265
-388 -331 -655 -765 -712 -1159 -9 -68 -10 -309 -1 -372 38 -258 170 -475 392
-646 69 -53 68 -44 -6 59 -159 222 -231 458 -223 729 4 155 7 178 42 315 118
475 409 888 933 1324 69 57 127 105 129 107 14 13 -29 1 -54 -14z"/>
<path d="M4217 4574 c-1 -1 -54 -4 -117 -8 -63 -3 -124 -8 -135 -10 -18 -3
-49 -8 -155 -22 -19 -3 -42 -7 -50 -9 -8 -2 -35 -7 -60 -10 -24 -4 -47 -8 -51
-10 -3 -2 -21 -7 -40 -10 -63 -11 -261 -66 -363 -102 -742 -258 -1319 -729
-1608 -1313 -109 -220 -169 -449 -163 -630 3 -123 9 -154 41 -235 66 -162 199
-292 390 -381 70 -33 201 -76 269 -88 17 -3 41 -8 54 -11 80 -16 354 -25 461
-15 l55 5 -115 28 c-301 73 -423 146 -493 294 -72 154 -22 391 128 608 272
394 625 691 1047 881 94 42 363 137 418 147 14 3 54 12 90 20 36 8 88 18 115
22 28 5 57 9 65 10 154 26 484 25 659 -1 395 -59 672 -261 736 -536 38 -167
21 -311 -69 -593 -20 -60 -34 -111 -32 -112 6 -7 150 222 203 323 45 85 93
206 108 272 3 9 9 37 16 62 17 70 18 227 2 304 -42 203 -177 368 -417 509 -74
43 -318 146 -348 147 -9 0 -20 4 -23 10 -11 18 190 -5 315 -36 246 -62 445
-218 544 -428 49 -103 84 -260 80 -364 -1 -51 12 -43 21 13 3 22 10 63 15 90
13 72 4 349 -13 415 -44 169 -106 280 -221 396 -109 109 -216 178 -396 252
-59 25 -213 66 -285 76 -22 4 -53 9 -70 11 -32 5 -79 10 -190 20 -65 6 -412
14 -418 9z"/>
<path d="M4114 3320 c-158 -27 -381 -94 -531 -161 -23 -11 -47 -19 -54 -19 -7
0 -10 -2 -8 -5 3 -2 69 9 146 25 78 16 168 32 200 35 32 4 65 8 73 10 86 22
416 22 532 0 13 -3 50 -10 83 -16 113 -21 238 -68 335 -127 54 -33 138 -120
174 -182 32 -51 95 -208 112 -274 l7 -30 9 25 c11 28 13 157 3 208 -49 267
-241 427 -605 507 -108 23 -348 25 -476 4z"/>
<path d="M3915 2760 c-399 -65 -694 -213 -880 -444 -174 -215 -206 -454 -88
-655 84 -144 289 -260 512 -289 154 -20 371 -1 551 47 141 38 336 122 469 203
34 21 65 38 67 38 3 0 28 16 57 36 29 20 44 34 34 30 -47 -15 -328 -86 -382
-96 -33 -5 -71 -13 -85 -16 -14 -3 -86 -7 -160 -8 -122 -4 -164 -1 -268 18
-178 33 -269 159 -205 285 27 55 74 96 158 138 195 98 441 124 647 70 382
-100 538 -363 418 -702 -111 -312 -346 -617 -731 -946 -89 -77 -143 -122 -185
-156 -340 -273 -364 -293 -325 -273 234 121 634 392 826 559 84 74 279 277
339 355 166 212 276 435 332 674 9 39 18 72 21 72 5 0 -5 -240 -11 -270 -10
-44 -16 -74 -20 -95 -12 -62 -79 -208 -141 -306 -5 -9 -18 -31 -29 -49 -10
-18 -61 -98 -113 -178 -52 -79 -92 -146 -90 -149 10 -9 257 249 325 339 162
217 281 478 308 679 3 24 10 64 14 88 9 48 6 244 -5 301 -32 175 -120 337
-249 457 -126 117 -302 200 -511 239 -134 25 -456 27 -600 4z"/>
</g>
</svg>
