<svg width="220" height="102" viewBox="0 0 220 102" fill="none" xmlns="http://www.w3.org/2000/svg">
    <path d="M1 61.176H23.7654V99.4566H46.6758V61.176H87.7115V99.4566H110.767V2.73999H87.7115V40.7306H46.6758V61.176H23.7654V40.7306H1V61.176ZM23.7654 40.7306H46.6758V2.73999H23.7654V40.7306Z" fill="#46F3B5"/>
    <path d="M1 61.176H23.7654V99.4566H46.6758V61.176H87.7115V99.4566H110.767V2.73999H87.7115V40.7306H46.6758V61.176H23.7654V40.7306H1V61.176ZM23.7654 40.7306H46.6758V2.73999H23.7654V40.7306Z" stroke="#46DCF3" stroke-miterlimit="2"/>
    <path d="M1 61.176H23.7654V99.4566H46.6758V61.176H87.7115V99.4566H110.767V2.73999H87.7115V40.7306H46.6758V61.176H23.7654V40.7306H1V61.176ZM23.7654 40.7306H46.6758V2.73999H23.7654V40.7306Z" stroke="black" stroke-opacity="0.2" stroke-miterlimit="2"/>
    <path d="M1 61.176H23.7654V99.4566H46.6758V61.176H87.7115V99.4566H110.767V2.73999H87.7115V40.7306H46.6758V61.176H23.7654V40.7306H1V61.176ZM23.7654 40.7306H46.6758V2.73999H23.7654V40.7306Z" stroke="black" stroke-opacity="0.2" stroke-miterlimit="2"/>
    <path d="M198.12 65.3811C193.479 72.9212 184.924 77.8513 175.354 77.8513C160.419 77.8513 148.384 65.8161 148.384 50.8809C148.384 36.0906 160.419 23.9104 175.354 23.9104C184.924 23.9104 193.479 28.9855 198.12 36.5256L219 26.3754C210.3 11.1502 194.06 1 175.354 1C147.659 1 125.328 23.3304 125.328 51.0259C125.328 78.7213 147.659 101.052 175.354 101.052C194.06 101.052 210.445 90.7565 219 75.5313L198.12 65.3811Z" fill="#46F3B5"/>
    <path d="M198.12 65.3811C193.479 72.9212 184.924 77.8513 175.354 77.8513C160.419 77.8513 148.384 65.8161 148.384 50.8809C148.384 36.0906 160.419 23.9104 175.354 23.9104C184.924 23.9104 193.479 28.9855 198.12 36.5256L219 26.3754C210.3 11.1502 194.06 1 175.354 1C147.659 1 125.328 23.3304 125.328 51.0259C125.328 78.7213 147.659 101.052 175.354 101.052C194.06 101.052 210.445 90.7565 219 75.5313L198.12 65.3811Z" stroke="#46DCF3" stroke-miterlimit="2"/>
    <path d="M198.12 65.3811C193.479 72.9212 184.924 77.8513 175.354 77.8513C160.419 77.8513 148.384 65.8161 148.384 50.8809C148.384 36.0906 160.419 23.9104 175.354 23.9104C184.924 23.9104 193.479 28.9855 198.12 36.5256L219 26.3754C210.3 11.1502 194.06 1 175.354 1C147.659 1 125.328 23.3304 125.328 51.0259C125.328 78.7213 147.659 101.052 175.354 101.052C194.06 101.052 210.445 90.7565 219 75.5313L198.12 65.3811Z" stroke="black" stroke-opacity="0.2" stroke-miterlimit="2"/>
    <path d="M198.12 65.3811C193.479 72.9212 184.924 77.8513 175.354 77.8513C160.419 77.8513 148.384 65.8161 148.384 50.8809C148.384 36.0906 160.419 23.9104 175.354 23.9104C184.924 23.9104 193.479 28.9855 198.12 36.5256L219 26.3754C210.3 11.1502 194.06 1 175.354 1C147.659 1 125.328 23.3304 125.328 51.0259C125.328 78.7213 147.659 101.052 175.354 101.052C194.06 101.052 210.445 90.7565 219 75.5313L198.12 65.3811Z" stroke="black" stroke-opacity="0.2" stroke-miterlimit="2"/>
    </svg>
    